<?xml version="1.0" standalone="no"?>
<!DOCTYPE svg PUBLIC "-//W3C//DTD SVG 20010904//EN"
 "http://www.w3.org/TR/2001/REC-SVG-20010904/DTD/svg10.dtd">
<svg version="1.0" xmlns="http://www.w3.org/2000/svg"
 width="512.000000pt" height="512.000000pt" viewBox="0 0 512.000000 512.000000"
 preserveAspectRatio="xMidYMid meet">
<metadata>
Created by potrace 1.14, written by Peter Selinger 2001-2017
</metadata>
<g transform="translate(0.000000,512.000000) scale(0.100000,-0.100000)"
fill="#000000" stroke="none">
<path d="M3544 4530 c-475 -81 -875 -422 -1019 -870 -15 -47 -30 -93 -34 -103
-4 -12 -44 -30 -124 -57 -236 -79 -422 -194 -592 -365 -108 -108 -214 -251
-266 -358 -19 -39 -27 -47 -44 -42 -147 42 -392 51 -534 19 -14 -3 -66 -19
-115 -35 -309 -103 -548 -327 -673 -629 -63 -151 -83 -268 -78 -445 2 -71 6
-143 10 -160 99 -496 496 -860 985 -903 109 -9 3226 -8 3303 2 33 4 69 11 80
15 12 5 25 9 30 10 48 6 169 60 231 103 121 84 221 202 282 332 39 85 38 83
61 206 38 209 -25 446 -169 628 -90 115 -184 183 -341 247 l-78 31 63 44 c186
131 372 376 452 598 81 227 99 421 62 682 -19 133 -115 367 -202 492 -186 268
-444 452 -748 532 -120 32 -157 37 -311 40 -88 2 -162 -2 -231 -14z"/>
</g>
</svg>
