<svg id="Capa_1" enable-background="new 0 0 512 512" height="512" viewBox="0 0 512 512" width="512" xmlns="http://www.w3.org/2000/svg"><g><g><path d="m431.631 38.831h-5.795c-4.509-22.157-24.106-38.831-47.593-38.831s-43.083 16.674-47.592 38.831c-.637 3.147-.974 6.401-.974 9.736 0 12.14 4.453 23.237 11.815 31.749h90.139c5.727 0 10.916-2.323 14.669-6.076s6.076-8.936 6.076-14.669c0-11.454-9.292-20.74-20.745-20.74z" fill="#ddebfd"/><path d="m442.895 170.113c-5.857-5.857-13.957-9.482-22.89-9.482h-45.945c5.465-13.319 8.535-27.878 8.672-43.133.573-64.101-51.434-117.014-115.536-117.495-63.151-.474-114.772 49.316-117.239 111.745-.085 2.159-1.86 3.863-4.021 3.864-9.215.002-31.436.003-31.436.003-30.307 0-54.876 24.569-54.876 54.876s24.569 54.875 54.876 54.875h304.98c17.605 0 32.394-13.846 32.883-31.444.259-9.294-3.41-17.751-9.468-23.809z" fill="#ddebfd"/><g fill="#bed9fd"><path d="m442.895 170.113c-5.857-5.857-13.957-9.482-22.89-9.482h-29.23c8.933 0 17.032 3.624 22.89 9.482 6.058 6.058 9.728 14.515 9.469 23.811-.489 17.598-15.278 31.444-32.883 31.444h29.23c17.605 0 32.394-13.846 32.883-31.444.258-9.296-3.411-17.753-9.469-23.811z"/><path d="m353.502 117.498c-.124 13.856-2.668 27.138-7.229 39.438-.665 1.793.656 3.695 2.568 3.695h25.22c5.465-13.319 8.535-27.878 8.672-43.133.572-64.101-51.435-117.014-115.537-117.495-5.271-.04-10.459.279-15.548.918 57.655 7.273 102.386 57.105 101.854 116.577z"/></g></g><path d="m255.998 143.696c-58.528 0-105.974 47.446-105.974 105.974s47.446 105.974 105.974 105.974 105.974-47.447 105.974-105.974-47.446-105.974-105.974-105.974z" fill="#ddebfd"/><path d="m187.875 330.84 19.562-23.308c1.141-1.359 1.011-3.373-.297-4.573-14.984-13.743-24.162-33.714-23.408-55.818 1.298-38.042 32.436-68.846 70.488-69.76 40.748-.978 74.088 31.76 74.088 72.287 0 22.234-10.047 42.116-25.835 55.38l21.646 25.79c23.569-19.801 38.398-49.672 37.838-82.992-.957-56.958-47.5-103.353-104.46-104.14-59.214-.818-107.473 46.937-107.473 105.963 0 32.586 14.712 61.732 37.851 81.171z" fill="#6cbff8"/><path d="m361.972 249.669c0 32.587-14.715 61.735-37.853 81.17l-19.562-23.307c-1.142-1.361-1.009-3.375.3-4.576 14.411-13.217 23.451-32.192 23.451-53.287z" fill="#df646e"/><path d="m243.902 245.183c-1.947 0-3.896-.743-5.383-2.229l-16.613-16.613c-2.972-2.973-2.972-7.792 0-10.765 2.973-2.971 7.792-2.971 10.765 0l16.613 16.613c2.972 2.973 2.972 7.792 0 10.765-1.486 1.486-3.435 2.229-5.382 2.229z" fill="#5d91b9"/><g fill="#5d91b9"><path d="m281.002 477.614-17.391 12.163v-80.723c0-4.204-3.407-7.612-7.611-7.612s-7.611 3.407-7.611 7.612v80.723l-17.391-12.163c-3.445-2.409-8.19-1.569-10.6 1.876-2.408 3.444-1.569 8.19 1.876 10.6l29.365 20.536c1.322.912 2.897 1.374 4.362 1.374 1.441 0 3.01-.441 4.362-1.374l29.365-20.536c3.445-2.409 4.284-7.156 1.876-10.6-2.412-3.444-7.157-4.285-10.602-1.876z"/><path d="m435.783 479.491c-2.409-3.445-7.155-4.285-10.6-1.876l-17.391 12.163v-142.333c0-4.204-3.407-7.612-7.611-7.612s-7.612 3.407-7.612 7.612v142.332l-17.392-12.163c-3.446-2.409-8.19-1.567-10.6 1.876-2.408 3.445-1.569 8.19 1.876 10.6l29.366 20.536c1.349.92 2.884 1.374 4.362 1.374 1.464 0 2.994-.441 4.362-1.374l29.365-20.536c3.444-2.409 4.283-7.155 1.875-10.599z"/><path d="m136.821 477.614-17.391 12.163v-142.332c0-4.204-3.407-7.612-7.611-7.612s-7.611 3.407-7.611 7.612v142.332l-17.391-12.163c-3.444-2.409-8.19-1.569-10.6 1.876-2.408 3.444-1.569 8.19 1.876 10.6l29.365 20.536c.011.007.023.012.034.02 1.283.889 2.877 1.354 4.328 1.354 1.459 0 3.042-.463 4.328-1.354.011-.007.023-.012.034-.02l29.365-20.536c3.445-2.409 4.284-7.156 1.876-10.6-2.412-3.444-7.158-4.285-10.602-1.876z"/></g><circle cx="255.998" cy="249.67" fill="#6bbdd5" r="21.749"/></g></svg>