<svg id="Capa_1" enable-background="new 0 0 512 512" height="512" viewBox="0 0 512 512" width="512" xmlns="http://www.w3.org/2000/svg"><g><ellipse cx="256" cy="325.306" fill="#ddebfd" rx="186.694" ry="186.694" transform="matrix(.707 -.707 .707 .707 -155.045 276.299)"/><path d="m318.477 149.334c56.286 32.154 94.227 92.753 94.227 162.218 0 103.109-83.586 186.695-186.694 186.695-21.915 0-42.942-3.788-62.477-10.725 27.26 15.574 58.823 24.478 92.467 24.478 103.109 0 186.694-83.586 186.694-186.694 0-81.194-51.836-150.271-124.217-175.972z" fill="#bed9fd"/><path d="m442.694 325.306c0 51.022-20.476 97.255-53.653 130.955l-29.821-30.96c-1.505-1.563-1.542-4.025-.077-5.625 22.77-24.873 36.663-57.998 36.663-94.366 0-77.218-62.589-139.816-139.807-139.816v-46.88c103.109-.002 186.695 83.584 186.695 186.692z" fill="#df646e"/><path d="m442.408 315.019c-4.193-77.228-55.295-141.367-123.913-165.673 56.276 32.157 94.208 92.75 94.208 162.207 0 46.679-17.132 89.356-45.45 122.088l21.788 22.62c10.368-10.531 19.496-22.288 27.146-35.03 18.841-31.39 28.296-68.019 26.221-106.212z" fill="#cd5668"/><path d="m256 138.612v46.88c-77.218 0-139.807 62.598-139.807 139.816 0 36.368 13.893 69.494 36.663 94.366 1.465 1.6 1.428 4.063-.077 5.625l-29.821 30.96c-33.177-33.7-53.653-79.932-53.653-130.954.001-103.107 83.587-186.693 186.695-186.693z" fill="#6cbff8"/><path d="m141.88 68.79v123.843c0 2.454 1.309 4.722 3.434 5.949l107.251 61.921c2.125 1.227 4.744 1.227 6.869 0l107.251-61.922c2.125-1.227 3.434-3.495 3.434-5.949v-123.842c0-2.454-1.309-4.722-3.434-5.949l-107.251-61.921c-2.125-1.227-4.744-1.227-6.869 0l-107.251 61.922c-2.125 1.227-3.434 3.494-3.434 5.948z" fill="#5d91b9"/><path d="m366.686 62.842-20.592-11.889c.212.67.336 1.373.336 2.097v125.842c0 2.494-1.33 4.798-3.49 6.045l-108.983 62.921c-.626.362-1.297.606-1.983.758l20.592 11.889c2.125 1.227 4.744 1.227 6.869 0l107.251-61.922c2.125-1.227 3.434-3.495 3.434-5.949v-123.844c0-2.453-1.309-4.721-3.434-5.948z" fill="#4980ac"/><circle cx="256" cy="130.712" fill="#ecc52e" r="35.144"/><path d="m347.682 374.865c-1.039 0-2.094-.217-3.101-.675l-72.917-33.172c-3.77-1.715-5.436-6.162-3.721-9.932 1.715-3.771 6.164-5.436 9.932-3.721l72.917 33.172c3.77 1.715 5.436 6.162 3.721 9.932-1.257 2.762-3.982 4.396-6.831 4.396z" fill="#5d91b9"/><g fill="#4980ac"><path d="m226.763 432.228c-13.076 0-23.713-10.638-23.713-23.713s10.638-23.714 23.713-23.714 23.713 10.638 23.713 23.714-10.637 23.713-23.713 23.713zm0-32.427c-4.805 0-8.713 3.909-8.713 8.714s3.909 8.713 8.713 8.713 8.713-3.909 8.713-8.713-3.908-8.714-8.713-8.714z"/><path d="m291.703 467.936h-16.5c-9.51 0-17.248-7.737-17.248-17.248v-26.243c0-9.511 7.737-17.248 17.248-17.248h16.5c9.51 0 17.248 7.737 17.248 17.248 0 4.142-3.358 7.5-7.5 7.5s-7.5-3.358-7.5-7.5c0-1.24-1.008-2.248-2.248-2.248h-16.5c-1.239 0-2.248 1.008-2.248 2.248v26.243c0 1.239 1.008 2.248 2.248 2.248h16.5c1.239 0 2.248-1.008 2.248-2.248 0-4.142 3.358-7.5 7.5-7.5s7.5 3.358 7.5 7.5c-.001 9.51-7.738 17.248-17.248 17.248z"/></g><g fill="#ebb34c"><path d="m256 83.068c-4.142 0-7.5-3.358-7.5-7.5v-5.987c0-4.142 3.358-7.5 7.5-7.5s7.5 3.358 7.5 7.5v5.987c0 4.142-3.358 7.5-7.5 7.5z"/><path d="m217.007 99.219c-1.919 0-3.839-.732-5.304-2.197l-4.233-4.233c-2.929-2.929-2.928-7.678 0-10.607 2.929-2.928 7.678-2.928 10.607 0l4.233 4.233c2.929 2.929 2.928 7.678 0 10.607-1.465 1.465-3.384 2.197-5.303 2.197z"/><path d="m200.855 138.212h-5.986c-4.142 0-7.5-3.358-7.5-7.5s3.358-7.5 7.5-7.5h5.986c4.142 0 7.5 3.358 7.5 7.5s-3.358 7.5-7.5 7.5z"/><path d="m212.774 181.438c-1.919 0-3.838-.732-5.303-2.196-2.929-2.929-2.929-7.678 0-10.607l4.233-4.233c2.929-2.929 7.677-2.929 10.607 0 2.929 2.929 2.929 7.678 0 10.607l-4.233 4.233c-1.465 1.464-3.385 2.196-5.304 2.196z"/><path d="m256 199.343c-4.142 0-7.5-3.358-7.5-7.5v-5.987c0-4.142 3.358-7.5 7.5-7.5s7.5 3.358 7.5 7.5v5.987c0 4.142-3.358 7.5-7.5 7.5z"/><path d="m299.226 181.438c-1.919 0-3.839-.732-5.303-2.197l-4.233-4.233c-2.929-2.929-2.929-7.678 0-10.606 2.929-2.929 7.678-2.929 10.606 0l4.233 4.233c2.929 2.929 2.929 7.678 0 10.606-1.464 1.465-3.384 2.197-5.303 2.197z"/><path d="m317.131 138.212h-5.987c-4.142 0-7.5-3.358-7.5-7.5s3.358-7.5 7.5-7.5h5.987c4.142 0 7.5 3.358 7.5 7.5s-3.358 7.5-7.5 7.5z"/><path d="m294.993 99.219c-1.919 0-3.839-.732-5.303-2.197-2.929-2.929-2.929-7.678 0-10.606l4.233-4.233c2.929-2.929 7.678-2.929 10.606 0 2.929 2.929 2.929 7.678 0 10.606l-4.233 4.233c-1.465 1.465-3.384 2.197-5.303 2.197z"/></g><circle cx="256" cy="325.305" fill="#6bbdd5" r="25.289"/></g></svg>